<svg xmlns="http://www.w3.org/2000/svg" xmlns:xlink="http://www.w3.org/1999/xlink" width="357" zoomAndPan="magnify" viewBox="0 0 267.75 74.249996" height="99" preserveAspectRatio="xMidYMid meet" version="1.0"><defs><g/><clipPath id="27aa900238"><path d="M 22 10.769531 L 47 10.769531 L 47 22 L 22 22 Z M 22 10.769531 " clip-rule="nonzero"/></clipPath><clipPath id="46e8165e54"><path d="M 23 51 L 46 51 L 46 62.792969 L 23 62.792969 Z M 23 51 " clip-rule="nonzero"/></clipPath><clipPath id="3a979d5d4b"><path d="M 8.574219 35 L 60.597656 35 L 60.597656 61 L 8.574219 61 Z M 8.574219 35 " clip-rule="nonzero"/></clipPath></defs><g fill="#000000" fill-opacity="1"><g transform="translate(72.876039, 50.143476)"><g><path d="M 0.0195312 -5.457031 C 0 -5.277344 0 -5.042969 0.0351562 -4.734375 C 0.0351562 -4.460938 0.0898438 -4.242188 0.164062 -4.078125 C 0.164062 -3.972656 0.199219 -3.808594 0.273438 -3.589844 C 0.308594 -3.371094 0.363281 -3.136719 0.433594 -2.882812 C 0.507812 -2.59375 0.582031 -2.355469 0.652344 -2.195312 C 0.726562 -1.976562 0.796875 -1.832031 0.886719 -1.777344 C 1.160156 -1.523438 1.289062 -1.414062 1.289062 -1.433594 C 1.46875 -1.289062 1.632812 -1.179688 1.742188 -1.105469 C 1.957031 -0.960938 2.121094 -0.871094 2.210938 -0.835938 C 2.304688 -0.78125 2.464844 -0.726562 2.683594 -0.652344 C 3.335938 -0.507812 4.132812 -0.378906 5.058594 -0.289062 C 6.257812 -0.125 7.398438 -0.0351562 8.449219 -0.0195312 C 9.03125 0 9.59375 0 10.15625 0 C 10.71875 0 11.242188 -0.0546875 11.714844 -0.125 C 12.730469 -0.273438 13.402344 -0.527344 13.707031 -0.886719 C 13.871094 -1.089844 14.054688 -1.46875 14.234375 -2.03125 C 14.417969 -2.574219 14.523438 -3.15625 14.5625 -3.753906 C 14.597656 -4.40625 14.542969 -4.949219 14.398438 -5.386719 C 14.179688 -5.875 13.855469 -6.183594 13.417969 -6.292969 C 13.347656 -6.292969 13.253906 -6.292969 13.164062 -6.308594 C 13.074219 -6.328125 12.984375 -6.347656 12.875 -6.363281 C 12.546875 -6.402344 12.292969 -6.417969 12.078125 -6.457031 C 11.933594 -6.457031 11.769531 -6.457031 11.605469 -6.472656 C 11.441406 -6.492188 11.277344 -6.511719 11.117188 -6.527344 C 10.863281 -6.546875 10.5 -6.5625 9.992188 -6.601562 C 9.863281 -7.671875 9.792969 -8.886719 9.757812 -10.226562 C 9.703125 -11.460938 9.703125 -12.710938 9.757812 -14.015625 C 9.808594 -15.484375 9.902344 -16.753906 10.007812 -17.84375 C 10.082031 -18.949219 10.246094 -20.199219 10.464844 -21.597656 C 11.1875 -21.5625 11.695312 -21.5625 12.003906 -21.5625 C 12.546875 -21.542969 13.109375 -21.578125 13.671875 -21.652344 C 14.234375 -21.722656 14.542969 -22.160156 14.578125 -22.957031 C 14.578125 -23.210938 14.578125 -23.464844 14.5625 -23.683594 C 14.523438 -23.898438 14.488281 -24.117188 14.453125 -24.351562 C 14.417969 -24.40625 14.378906 -24.570312 14.34375 -24.824219 C 14.234375 -25.222656 14.164062 -25.460938 14.164062 -25.53125 C 14.089844 -25.75 14.035156 -25.96875 13.960938 -26.222656 C 13.890625 -26.402344 13.800781 -26.53125 13.726562 -26.636719 C 13.507812 -26.800781 13.382812 -26.910156 13.308594 -26.984375 L 12.875 -27.308594 C 12.675781 -27.417969 12.511719 -27.507812 12.402344 -27.582031 C 12.1875 -27.671875 12.023438 -27.726562 11.914062 -27.761719 C 11.296875 -27.871094 10.515625 -28 9.539062 -28.144531 C 8.46875 -28.253906 7.34375 -28.34375 6.164062 -28.398438 C 4.933594 -28.433594 3.84375 -28.398438 2.902344 -28.289062 C 1.886719 -28.144531 1.214844 -27.890625 0.90625 -27.527344 C 0.6875 -27.273438 0.527344 -26.890625 0.378906 -26.382812 C 0.199219 -25.839844 0.0742188 -25.261719 0.0351562 -24.660156 C 0 -23.972656 0.0546875 -23.429688 0.21875 -23.03125 C 0.398438 -22.523438 0.707031 -22.214844 1.179688 -22.140625 C 1.359375 -22.085938 1.488281 -22.070312 1.523438 -22.070312 C 1.703125 -22.03125 1.867188 -22.015625 1.976562 -22.015625 C 2.210938 -21.976562 2.394531 -21.960938 2.539062 -21.960938 C 2.664062 -21.941406 2.882812 -21.921875 3.171875 -21.90625 C 2.992188 -20.925781 2.8125 -19.730469 2.664062 -18.316406 C 2.519531 -17.046875 2.410156 -15.722656 2.339844 -14.34375 C 2.25 -12.765625 2.210938 -11.441406 2.210938 -10.390625 C 2.210938 -9.085938 2.25 -7.90625 2.320312 -6.855469 L 1.46875 -6.855469 C 0.527344 -6.855469 0.0351562 -6.382812 0.0195312 -5.457031 Z M 0.0195312 -5.457031 "/></g></g></g><g fill="#000000" fill-opacity="1"><g transform="translate(88.214568, 50.143476)"><g><path d="M 21.667969 -27.183594 C 20.308594 -27.472656 18.929688 -27.636719 17.515625 -27.636719 C 16.101562 -27.636719 14.707031 -27.527344 13.363281 -27.308594 C 11.730469 -27.039062 10.0625 -26.566406 8.324219 -25.914062 C 6.582031 -25.242188 5.042969 -24.246094 3.664062 -22.921875 C 0.90625 -20.273438 -0.0351562 -16.992188 0.796875 -13.054688 C 1.304688 -10.5 2.339844 -8.179688 3.898438 -6.109375 C 4.734375 -4.96875 5.695312 -4.007812 6.78125 -3.226562 C 7.871094 -2.449219 9.03125 -1.832031 10.226562 -1.359375 C 11.730469 -0.742188 13.308594 -0.363281 14.960938 -0.21875 C 16.191406 -0.109375 17.425781 -0.109375 18.675781 -0.21875 C 19.910156 -0.328125 21.160156 -0.707031 22.394531 -1.359375 C 22.832031 -1.578125 23.285156 -1.867188 23.753906 -2.195312 C 24.40625 -2.664062 25.167969 -3.335938 26.039062 -4.226562 C 26.910156 -5.09375 26.929688 -5.984375 26.09375 -6.890625 C 24.625 -8.414062 23.15625 -8.722656 21.707031 -7.832031 C 20.238281 -6.925781 18.839844 -6.417969 17.515625 -6.292969 C 15.777344 -6.109375 14.054688 -6.382812 12.386719 -7.070312 C 10.699219 -7.761719 9.59375 -8.902344 9.046875 -10.5 C 8.285156 -12.65625 8.285156 -14.378906 9.03125 -15.683594 C 9.773438 -16.972656 10.824219 -17.933594 12.203125 -18.550781 C 13.582031 -19.167969 15.050781 -19.492188 16.609375 -19.546875 C 18.167969 -19.601562 19.402344 -19.476562 20.308594 -19.183594 C 20.746094 -19.039062 21.179688 -18.878906 21.632812 -18.730469 C 22.085938 -18.570312 22.558594 -18.496094 23.03125 -18.496094 C 23.539062 -18.496094 24.082031 -18.984375 24.644531 -19.964844 C 25.023438 -20.636719 25.277344 -21.363281 25.421875 -22.140625 C 25.550781 -22.902344 25.621094 -23.683594 25.621094 -24.460938 C 25.621094 -25.113281 25.222656 -25.695312 24.425781 -26.183594 C 23.738281 -26.582031 22.832031 -26.910156 21.667969 -27.183594 Z M 21.667969 -27.183594 "/></g></g></g><g fill="#000000" fill-opacity="1"><g transform="translate(116.226422, 50.143476)"><g><path d="M 0.507812 -23.917969 C 0.253906 -23.628906 0.144531 -23.191406 0.179688 -22.628906 C 0.21875 -22.070312 0.253906 -21.652344 0.289062 -21.363281 C 0.328125 -20.273438 0.488281 -19.203125 0.78125 -18.1875 C 0.925781 -17.589844 1.070312 -17.0625 1.214844 -16.628906 C 1.359375 -16.175781 1.757812 -15.8125 2.375 -15.539062 C 3.066406 -15.214844 3.84375 -15.03125 4.679688 -14.996094 C 5.511719 -14.960938 6.308594 -14.925781 7.089844 -14.871094 C 7.488281 -14.832031 8.015625 -14.742188 8.667969 -14.632812 C 9.300781 -14.507812 9.71875 -14.214844 9.902344 -13.746094 C 10.226562 -12.910156 10.464844 -12.113281 10.644531 -11.371094 C 11.007812 -9.863281 11.277344 -8.339844 11.460938 -6.816406 C 11.640625 -5.277344 11.96875 -3.773438 12.441406 -2.304688 C 12.566406 -1.832031 12.765625 -1.324219 13.019531 -0.761719 C 13.148438 -0.433594 13.402344 -0.21875 13.78125 -0.125 C 14.144531 -0.0351562 14.488281 0 14.816406 0 C 15.578125 0 16.429688 -0.0898438 17.371094 -0.273438 C 18.316406 -0.453125 19.09375 -0.761719 19.746094 -1.234375 C 20.183594 -1.558594 20.417969 -2.085938 20.453125 -2.8125 C 20.492188 -4.152344 20.382812 -5.566406 20.164062 -7.070312 C 19.945312 -8.558594 19.765625 -9.992188 19.621094 -11.351562 C 19.546875 -12.003906 19.421875 -12.800781 19.257812 -13.761719 C 19.078125 -14.722656 19.203125 -15.46875 19.601562 -15.992188 C 19.984375 -16.5 20.507812 -16.882812 21.199219 -17.171875 C 21.867188 -17.445312 22.484375 -17.699219 23.066406 -17.953125 C 23.484375 -18.132812 23.953125 -18.351562 24.5 -18.605469 C 25.023438 -18.859375 25.40625 -19.203125 25.621094 -19.65625 C 25.949219 -20.382812 25.984375 -21.523438 25.75 -23.066406 C 25.496094 -24.589844 25.152344 -25.714844 24.679688 -26.402344 C 24.261719 -26.984375 23.628906 -27.238281 22.792969 -27.128906 C 22.050781 -27.019531 21.324219 -26.835938 20.601562 -26.582031 C 19.875 -26.328125 19.167969 -26.128906 18.441406 -25.984375 C 16.230469 -25.53125 14.015625 -25.097656 11.804688 -24.679688 C 9.574219 -24.246094 7.34375 -24.046875 5.09375 -24.046875 C 4.007812 -24.046875 2.972656 -24.097656 1.996094 -24.226562 C 1.269531 -24.316406 0.761719 -24.207031 0.507812 -23.917969 Z M 0.507812 -23.917969 "/></g></g></g><g fill="#000000" fill-opacity="1"><g transform="translate(143.639964, 50.143476)"><g/></g></g><g fill="#000000" fill-opacity="1"><g transform="translate(152.850334, 50.143476)"><g><path d="M 9.828125 -9.085938 C 10.933594 -9.121094 12.238281 -9.25 13.726562 -9.449219 C 15.214844 -9.628906 16.5 -9.902344 17.625 -10.261719 C 17.953125 -7.90625 18.351562 -6.054688 18.824219 -4.75 C 19.132812 -3.808594 19.511719 -3.046875 19.945312 -2.464844 C 20.238281 -2.011719 20.617188 -1.722656 21.089844 -1.597656 C 21.597656 -1.414062 22.195312 -1.34375 22.867188 -1.378906 C 23.539062 -1.414062 24.136719 -1.488281 24.679688 -1.597656 C 25.441406 -1.742188 26.023438 -1.996094 26.4375 -2.355469 C 26.835938 -2.71875 26.929688 -3.390625 26.710938 -4.332031 C 25.894531 -7.5625 25.367188 -11.171875 25.113281 -15.125 C 24.859375 -19.078125 25.0625 -22.628906 25.714844 -25.75 C 25.769531 -26.074219 25.839844 -26.402344 25.914062 -26.765625 C 25.984375 -27.109375 26.023438 -27.453125 26.023438 -27.796875 C 25.96875 -28.398438 25.621094 -28.796875 25.007812 -29.015625 C 24.390625 -29.214844 23.683594 -29.285156 22.882812 -29.25 C 22.085938 -29.214844 21.308594 -29.085938 20.546875 -28.886719 C 19.785156 -28.667969 19.257812 -28.46875 18.96875 -28.269531 C 18.40625 -27.871094 18.007812 -27.34375 17.769531 -26.675781 C 17.535156 -26.003906 17.371094 -25.367188 17.261719 -24.753906 C 17.082031 -23.738281 16.972656 -22.523438 16.9375 -21.089844 C 16.902344 -19.636719 16.917969 -18.132812 17.007812 -16.554688 C 15.957031 -16.445312 14.632812 -16.265625 13.074219 -16.046875 C 11.515625 -15.8125 10.027344 -15.59375 8.648438 -15.378906 C 8.195312 -18.914062 8.050781 -22.304688 8.214844 -25.566406 C 8.25 -26.53125 8.050781 -27.144531 7.578125 -27.4375 C 7.109375 -27.707031 6.472656 -27.851562 5.695312 -27.871094 C 5.148438 -27.871094 4.535156 -27.816406 3.878906 -27.707031 C 3.210938 -27.597656 2.648438 -27.4375 2.175781 -27.183594 C 1.742188 -26.929688 1.414062 -26.566406 1.214844 -26.113281 C 0.886719 -25.421875 0.671875 -24.605469 0.5625 -23.644531 C 0.378906 -22.503906 0.328125 -21.035156 0.378906 -19.238281 C 0.433594 -17.445312 0.582031 -15.59375 0.796875 -13.671875 C 1.015625 -11.75 1.289062 -9.882812 1.648438 -8.105469 C 2.011719 -6.308594 2.410156 -4.839844 2.882812 -3.71875 C 3.101562 -3.117188 3.390625 -2.519531 3.753906 -1.902344 C 4.117188 -1.289062 4.625 -0.851562 5.242188 -0.597656 C 5.566406 -0.433594 6.128906 -0.328125 6.925781 -0.273438 C 7.707031 -0.21875 8.488281 -0.253906 9.285156 -0.363281 C 10.0625 -0.472656 10.734375 -0.6875 11.316406 -1.015625 C 11.894531 -1.34375 12.148438 -1.796875 12.078125 -2.410156 C 12.023438 -2.738281 11.914062 -3.066406 11.769531 -3.390625 C 11.625 -3.71875 11.480469 -4.042969 11.371094 -4.351562 C 10.789062 -5.710938 10.261719 -7.289062 9.828125 -9.085938 Z M 9.828125 -9.085938 "/></g></g></g><g fill="#000000" fill-opacity="1"><g transform="translate(181.242931, 50.143476)"><g><path d="M 16.03125 -6.816406 C 16.539062 -5.132812 16.972656 -3.625 17.300781 -2.285156 C 17.515625 -1.269531 17.898438 -0.707031 18.476562 -0.5625 C 19.039062 -0.417969 19.730469 -0.472656 20.527344 -0.6875 C 21.070312 -0.835938 21.652344 -1.050781 22.304688 -1.359375 C 22.9375 -1.648438 23.464844 -2.011719 23.898438 -2.429688 C 24.226562 -2.71875 24.460938 -3.171875 24.570312 -3.789062 C 24.660156 -4.515625 24.644531 -5.402344 24.5 -6.472656 C 24.351562 -7.527344 23.953125 -9.140625 23.300781 -11.277344 C 22.648438 -13.417969 21.886719 -15.59375 20.980469 -17.84375 C 20.074219 -20.09375 19.078125 -22.140625 18.007812 -24.007812 C 16.9375 -25.859375 15.902344 -27.054688 14.925781 -27.597656 C 14.34375 -28.070312 13.492188 -28.398438 12.367188 -28.578125 C 11.226562 -28.761719 10.316406 -28.777344 9.628906 -28.632812 C 8.941406 -28.488281 8.339844 -28.125 7.832031 -27.5625 C 7.324219 -27 6.890625 -26.4375 6.546875 -25.894531 C 5.839844 -24.808594 5.113281 -23.355469 4.371094 -21.578125 C 3.625 -19.785156 2.9375 -17.914062 2.320312 -15.976562 C 1.703125 -14.015625 1.179688 -12.132812 0.761719 -10.28125 C 0.328125 -8.433594 0.0898438 -6.910156 0.0351562 -5.710938 C 0 -5.277344 0 -4.824219 0.0195312 -4.351562 C 0.0351562 -3.878906 0.109375 -3.445312 0.21875 -3.027344 C 0.34375 -2.464844 0.597656 -2.03125 0.980469 -1.722656 C 1.414062 -1.359375 1.976562 -1.050781 2.648438 -0.796875 C 3.320312 -0.542969 3.933594 -0.378906 4.496094 -0.289062 C 5.296875 -0.144531 5.984375 -0.164062 6.527344 -0.34375 C 7.070312 -0.527344 7.433594 -1.125 7.597656 -2.15625 C 7.742188 -3.210938 7.941406 -4.40625 8.234375 -5.730469 C 9.320312 -5.65625 10.664062 -5.75 12.257812 -5.984375 C 13.855469 -6.203125 15.125 -6.492188 16.03125 -6.816406 Z M 9.101562 -9.265625 C 9.863281 -12.023438 10.734375 -14.578125 11.75 -16.9375 C 12.910156 -14.722656 13.960938 -12.386719 14.90625 -9.957031 C 12.875 -9.464844 10.953125 -9.230469 9.101562 -9.265625 Z M 9.101562 -9.265625 "/></g></g></g><g fill="#000000" fill-opacity="1"><g transform="translate(207.18789, 50.143476)"><g><path d="M 21.667969 -27.183594 C 20.308594 -27.472656 18.929688 -27.636719 17.515625 -27.636719 C 16.101562 -27.636719 14.707031 -27.527344 13.363281 -27.308594 C 11.730469 -27.039062 10.0625 -26.566406 8.324219 -25.914062 C 6.582031 -25.242188 5.042969 -24.246094 3.664062 -22.921875 C 0.90625 -20.273438 -0.0351562 -16.992188 0.796875 -13.054688 C 1.304688 -10.5 2.339844 -8.179688 3.898438 -6.109375 C 4.734375 -4.96875 5.695312 -4.007812 6.78125 -3.226562 C 7.871094 -2.449219 9.03125 -1.832031 10.226562 -1.359375 C 11.730469 -0.742188 13.308594 -0.363281 14.960938 -0.21875 C 16.191406 -0.109375 17.425781 -0.109375 18.675781 -0.21875 C 19.910156 -0.328125 21.160156 -0.707031 22.394531 -1.359375 C 22.832031 -1.578125 23.285156 -1.867188 23.753906 -2.195312 C 24.40625 -2.664062 25.167969 -3.335938 26.039062 -4.226562 C 26.910156 -5.09375 26.929688 -5.984375 26.09375 -6.890625 C 24.625 -8.414062 23.15625 -8.722656 21.707031 -7.832031 C 20.238281 -6.925781 18.839844 -6.417969 17.515625 -6.292969 C 15.777344 -6.109375 14.054688 -6.382812 12.386719 -7.070312 C 10.699219 -7.761719 9.59375 -8.902344 9.046875 -10.5 C 8.285156 -12.65625 8.285156 -14.378906 9.03125 -15.683594 C 9.773438 -16.972656 10.824219 -17.933594 12.203125 -18.550781 C 13.582031 -19.167969 15.050781 -19.492188 16.609375 -19.546875 C 18.167969 -19.601562 19.402344 -19.476562 20.308594 -19.183594 C 20.746094 -19.039062 21.179688 -18.878906 21.632812 -18.730469 C 22.085938 -18.570312 22.558594 -18.496094 23.03125 -18.496094 C 23.539062 -18.496094 24.082031 -18.984375 24.644531 -19.964844 C 25.023438 -20.636719 25.277344 -21.363281 25.421875 -22.140625 C 25.550781 -22.902344 25.621094 -23.683594 25.621094 -24.460938 C 25.621094 -25.113281 25.222656 -25.695312 24.425781 -26.183594 C 23.738281 -26.582031 22.832031 -26.910156 21.667969 -27.183594 Z M 21.667969 -27.183594 "/></g></g></g><g fill="#000000" fill-opacity="1"><g transform="translate(235.199744, 50.143476)"><g><path d="M 8.269531 -21.523438 C 8.214844 -22.921875 8.234375 -24.261719 8.324219 -25.566406 C 8.359375 -26.53125 8.140625 -27.144531 7.671875 -27.4375 C 7.199219 -27.707031 6.5625 -27.851562 5.804688 -27.871094 C 5.257812 -27.871094 4.640625 -27.816406 3.972656 -27.707031 C 3.300781 -27.597656 2.738281 -27.4375 2.265625 -27.183594 C 1.867188 -26.964844 1.542969 -26.601562 1.304688 -26.113281 C 1.015625 -25.496094 0.796875 -24.679688 0.652344 -23.664062 C 0.472656 -22.523438 0.417969 -21.054688 0.472656 -19.257812 C 0.507812 -17.460938 0.652344 -15.613281 0.871094 -13.691406 C 1.089844 -11.769531 1.359375 -9.902344 1.722656 -8.105469 C 2.085938 -6.308594 2.484375 -4.839844 2.957031 -3.71875 C 3.171875 -3.136719 3.464844 -2.519531 3.828125 -1.902344 C 4.1875 -1.289062 4.695312 -0.851562 5.3125 -0.597656 C 5.640625 -0.433594 6.203125 -0.328125 7 -0.273438 C 7.78125 -0.21875 8.558594 -0.253906 9.355469 -0.363281 C 10.136719 -0.472656 10.808594 -0.6875 11.386719 -1.015625 C 11.949219 -1.34375 12.203125 -1.796875 12.132812 -2.410156 C 12.09375 -2.738281 11.984375 -3.066406 11.839844 -3.390625 C 11.695312 -3.71875 11.550781 -4.042969 11.441406 -4.351562 C 10.679688 -6.164062 10.046875 -8.269531 9.539062 -10.699219 C 9.664062 -10.410156 9.828125 -10.15625 10.007812 -9.972656 C 10.410156 -9.464844 11.132812 -8.742188 12.148438 -7.761719 C 13.164062 -6.78125 14.253906 -5.804688 15.433594 -4.859375 C 16.609375 -3.917969 17.753906 -3.101562 18.878906 -2.429688 C 19.984375 -1.757812 20.855469 -1.488281 21.488281 -1.613281 C 22.140625 -1.722656 23.101562 -2.394531 24.390625 -3.625 C 25.675781 -4.859375 25.894531 -5.949219 25.0625 -6.925781 C 24.679688 -7.324219 23.972656 -7.980469 22.921875 -8.886719 C 21.867188 -9.792969 20.726562 -10.753906 19.476562 -11.769531 C 18.222656 -12.785156 16.992188 -13.78125 15.777344 -14.761719 C 14.5625 -15.722656 13.601562 -16.464844 12.894531 -17.007812 C 13.910156 -18.242188 14.976562 -19.386719 16.121094 -20.4375 C 17.261719 -21.488281 18.585938 -22.503906 20.074219 -23.484375 C 20.328125 -23.644531 20.582031 -23.808594 20.871094 -23.992188 C 21.144531 -24.171875 21.398438 -24.371094 21.613281 -24.605469 C 22.414062 -25.441406 22.195312 -26.402344 20.960938 -27.492188 C 19.730469 -28.578125 18.824219 -29.175781 18.207031 -29.285156 C 17.660156 -29.359375 17.082031 -29.269531 16.5 -28.976562 C 15.921875 -28.6875 15.394531 -28.398438 14.925781 -28.070312 C 13.78125 -27.292969 12.640625 -26.328125 11.480469 -25.167969 C 10.316406 -24.007812 9.25 -22.792969 8.269531 -21.523438 Z M 8.269531 -21.523438 "/></g></g></g><path fill="#000000" d="M 27.011719 34.914062 C 28.480469 34.914062 30.011719 33.601562 31.042969 32.445312 L 23.699219 32.097656 C 24.675781 33.964844 25.789062 34.914062 27.011719 34.914062 Z M 27.011719 34.914062 " fill-opacity="1" fill-rule="nonzero"/><path fill="#000000" d="M 41.976562 34.914062 C 43.199219 34.914062 44.316406 33.96875 45.292969 32.097656 L 37.949219 32.445312 C 38.984375 33.601562 40.519531 34.914062 41.976562 34.914062 Z M 41.976562 34.914062 " fill-opacity="1" fill-rule="nonzero"/><path fill="#000000" d="M 53.042969 38.066406 C 53.027344 38.050781 53.003906 38.046875 52.992188 38.03125 C 52.527344 37.609375 52.09375 36.390625 52.65625 32.996094 C 52.765625 32.34375 52.667969 31.863281 52.355469 31.523438 C 51.90625 31.035156 51.0625 30.855469 50.402344 30.800781 C 50.605469 33.398438 50.792969 37.230469 50.539062 40.5625 C 51.234375 39.796875 52.082031 38.933594 53.042969 38.066406 Z M 53.042969 38.066406 " fill-opacity="1" fill-rule="nonzero"/><path fill="#000000" d="M 54.953125 24.730469 C 53.597656 23.691406 46.019531 22.328125 34.496094 22.328125 C 22.96875 22.328125 15.386719 23.695312 14.039062 24.730469 C 15.390625 25.761719 22.972656 27.128906 34.496094 27.128906 C 46.019531 27.128906 53.601562 25.761719 54.953125 24.730469 Z M 54.953125 24.730469 " fill-opacity="1" fill-rule="nonzero"/><g clip-path="url(#27aa900238)"><path fill="#000000" d="M 46.519531 21.085938 C 45.960938 15.234375 43.320312 10.792969 40.28125 10.792969 C 38.660156 10.792969 36.636719 11.203125 35.335938 14.417969 C 35.195312 14.757812 34.863281 14.980469 34.496094 14.980469 C 34.125 14.980469 33.796875 14.757812 33.65625 14.417969 C 32.355469 11.203125 30.328125 10.792969 28.707031 10.792969 C 25.667969 10.792969 23.027344 15.238281 22.472656 21.085938 C 27.773438 20.546875 33.351562 20.519531 34.496094 20.519531 C 35.640625 20.519531 41.214844 20.546875 46.519531 21.085938 Z M 46.519531 21.085938 " fill-opacity="1" fill-rule="nonzero"/></g><path fill="#000000" d="M 20.644531 28.160156 C 20.503906 29.433594 19.636719 37.917969 20.558594 42.894531 L 34.191406 48.652344 L 48.433594 42.890625 C 49.355469 37.90625 48.484375 29.433594 48.347656 28.164062 C 42.570312 28.902344 35.769531 28.941406 34.496094 28.941406 C 33.21875 28.9375 26.417969 28.902344 20.644531 28.160156 Z M 21.417969 31.464844 C 21.300781 31.179688 21.339844 30.855469 21.515625 30.601562 C 21.691406 30.347656 21.996094 30.210938 22.296875 30.21875 L 32.867188 30.71875 C 33.191406 30.734375 33.484375 30.921875 33.628906 31.210938 C 33.777344 31.5 33.757812 31.84375 33.582031 32.117188 C 33.460938 32.304688 30.53125 36.722656 27.011719 36.722656 C 24.722656 36.722656 22.839844 34.953125 21.417969 31.464844 Z M 35.359375 31.210938 C 35.503906 30.921875 35.796875 30.734375 36.121094 30.71875 L 46.691406 30.21875 C 47 30.207031 47.292969 30.347656 47.472656 30.601562 C 47.652344 30.855469 47.6875 31.179688 47.574219 31.464844 C 46.152344 34.953125 44.269531 36.722656 41.976562 36.722656 C 38.457031 36.722656 35.527344 32.304688 35.40625 32.117188 C 35.230469 31.84375 35.210938 31.5 35.359375 31.210938 Z M 40.660156 39.164062 C 41.152344 39.078125 41.625 39.402344 41.710938 39.894531 C 41.804688 40.382812 41.480469 40.855469 40.988281 40.945312 L 34.972656 42.042969 C 34.917969 42.050781 34.859375 42.054688 34.808594 42.054688 C 34.695312 42.054688 34.59375 42.035156 34.496094 42 C 34.398438 42.035156 34.292969 42.054688 34.183594 42.054688 C 34.132812 42.054688 34.078125 42.050781 34.019531 42.042969 L 28 40.945312 C 27.511719 40.855469 27.183594 40.382812 27.273438 39.894531 C 27.363281 39.402344 27.832031 39.078125 28.328125 39.164062 L 34.347656 40.261719 C 34.402344 40.273438 34.445312 40.300781 34.496094 40.320312 C 34.546875 40.300781 34.589844 40.273438 34.644531 40.261719 Z M 40.660156 39.164062 " fill-opacity="1" fill-rule="nonzero"/><path fill="#000000" d="M 16.632812 31.523438 C 16.324219 31.859375 16.226562 32.34375 16.335938 32.996094 C 16.894531 36.390625 16.460938 37.609375 16 38.03125 C 15.984375 38.046875 15.964844 38.050781 15.953125 38.066406 C 16.914062 38.933594 17.753906 39.796875 18.449219 40.5625 C 18.195312 37.230469 18.382812 33.398438 18.582031 30.804688 C 17.921875 30.855469 17.082031 31.035156 16.632812 31.523438 Z M 16.632812 31.523438 " fill-opacity="1" fill-rule="nonzero"/><g clip-path="url(#46e8165e54)"><path fill="#000000" d="M 34.886719 56.871094 C 34.871094 56.875 34.855469 56.875 34.839844 56.882812 C 34.78125 56.90625 34.71875 56.917969 34.652344 56.929688 C 34.601562 56.9375 34.546875 56.953125 34.5 56.953125 C 34.441406 56.953125 34.386719 56.9375 34.332031 56.929688 C 34.269531 56.914062 34.210938 56.90625 34.152344 56.882812 C 34.136719 56.875 34.121094 56.878906 34.105469 56.871094 L 23.789062 51.917969 L 34.496094 62.769531 L 45.199219 51.917969 Z M 34.886719 56.871094 " fill-opacity="1" fill-rule="nonzero"/></g><g clip-path="url(#3a979d5d4b)"><path fill="#000000" d="M 57.578125 43.847656 C 57.535156 43.730469 57.515625 43.609375 57.523438 43.484375 C 57.605469 42.226562 59.101562 38.085938 60.03125 35.625 C 54.789062 37.585938 50.007812 44.007812 49.957031 44.078125 C 49.941406 44.097656 49.921875 44.109375 49.90625 44.125 C 49.878906 44.15625 49.855469 44.183594 49.828125 44.210938 C 49.796875 44.238281 49.765625 44.261719 49.730469 44.285156 C 49.695312 44.308594 49.660156 44.324219 49.621094 44.34375 C 49.601562 44.355469 49.585938 44.375 49.566406 44.382812 L 34.523438 50.46875 C 34.304688 50.558594 34.054688 50.554688 33.832031 50.464844 L 19.410156 44.375 C 19.335938 44.34375 19.265625 44.300781 19.199219 44.253906 C 19.195312 44.25 19.195312 44.242188 19.1875 44.242188 C 19.132812 44.195312 19.078125 44.140625 19.03125 44.082031 C 18.984375 44.011719 14.199219 37.589844 8.957031 35.625 C 9.886719 38.089844 11.382812 42.226562 11.464844 43.488281 C 11.472656 43.609375 11.457031 43.734375 11.414062 43.847656 L 8.613281 51.675781 L 30.007812 60.796875 L 18.855469 49.488281 C 18.542969 49.175781 18.507812 48.6875 18.761719 48.332031 C 19.019531 47.972656 19.492188 47.847656 19.890625 48.039062 L 34.496094 55.050781 L 49.101562 48.035156 C 49.496094 47.84375 49.972656 47.96875 50.226562 48.328125 C 50.484375 48.683594 50.445312 49.175781 50.136719 49.484375 L 38.984375 60.792969 L 60.378906 51.671875 Z M 57.578125 43.847656 " fill-opacity="1" fill-rule="nonzero"/></g></svg>